<?xml version="1.0" encoding="UTF-8"?>
<svg class='flair-image' xmlns="http://www.w3.org/2000/svg" xmlnsXlink="http://www.w3.org/1999/xlink" width="96px" height="96px" viewBox="0 0 512 512" version="1.1">
    
    <title>Pot coffee</title>
    <desc>Created with Sketch.</desc>
    <defs/>
    <g id="SVG" stroke="none" stroke-width="1" fill="none" fill-rule="evenodd">
        <g id="Pot-coffee">
            <g id="8" transform="translate(0.000000, 45.000000)">
                <path d="M91.2979027,412.579302 L332.622876,412.579302 C381.7472,375.79172 413.539632,317.096384 413.539632,250.97152 C413.539632,139.556318 323.289254,49.2387557 211.95693,49.2387557 C100.631524,49.2387557 10.3811459,139.556318 10.3811459,250.97152 C10.3811459,317.096384 42.1735784,375.79172 91.2979027,412.579302" id="Fill-1" fill="#FEFEFE"/>
                <path d="M14.7220757,292.380918 C24.9205622,341.271772 52.7276973,383.688622 91.3006703,412.57584 L332.618724,412.57584 C371.191697,383.688622 398.998832,341.271772 409.197319,292.380918 L14.7220757,292.380918 Z" id="Fill-5" fill="#513A2B"/>
                <path d="M211.959697,49.2415254 C203.760778,49.2415254 195.6864,49.7885268 187.743481,50.7440484 C287.645751,62.7226886 365.103049,147.76411 365.103049,250.967366 C365.103049,317.099153 333.310616,375.787566 284.186292,412.582071 L332.618724,412.582071 C381.743049,375.787566 413.535481,317.099153 413.535481,250.967366 C413.535481,139.559088 323.285103,49.2415254 211.959697,49.2415254" id="Fill-9" fill="#010202" opacity="0.15"/>
                <path d="M94.7974919,402.195967 L329.120519,402.195967 C376.2176,365.63688 403.15987,310.715161 403.15987,250.967366 C403.15987,145.458395 317.392951,59.6276296 211.962465,59.6276296 C106.525059,59.6276296 20.7581405,145.458395 20.7581405,250.967366 C20.7581405,310.715161 47.7004108,365.63688 94.7974919,402.195967 M332.621492,422.968175 L91.2965189,422.968175 C89.0547892,422.968175 86.8684108,422.248072 85.0833297,420.897879 C31.0050595,380.40592 0.00138378378,318.463195 0.00138378378,250.967366 C0.00138378378,134.012908 95.0880865,38.8554211 211.962465,38.8554211 C328.829924,38.8554211 423.916627,134.012908 423.916627,250.967366 C423.916627,318.463195 392.912951,380.40592 338.834681,420.897879 C337.0496,422.248072 334.863222,422.968175 332.621492,422.968175" id="Fill-3" fill="#2E2E30"/>
                <path d="M94.8037189,402.195967 L329.112908,402.195967 C361.583395,376.957734 384.962422,342.108892 395.977341,302.773253 L27.9392865,302.773253 C38.9611243,342.108892 62.3401514,376.957734 94.8037189,402.195967 M332.6208,422.968175 L91.295827,422.968175 C89.0540973,422.968175 86.8746378,422.248072 85.0826378,420.897879 C43.6936649,389.89882 15.097773,345.010077 4.56025946,294.505914 C3.92371892,291.445476 4.69863784,288.260404 6.67052973,285.830055 C8.64242162,283.406631 11.6037189,282.001045 14.7241514,282.001045 L409.192476,282.001045 C412.319827,282.001045 415.274205,283.406631 417.253016,285.830055 C419.224908,288.260404 419.992908,291.445476 419.356368,294.505914 C408.818854,345.010077 380.222962,389.89882 338.840908,420.897879 C337.048908,422.248072 334.86253,422.968175 332.6208,422.968175" id="Fill-7" fill="#2E2E30"/>
                <path d="M387.244973,59.4524506 L387.244973,59.4524506 L70.9673514,59.4524506 L70.9673514,100.318309 L387.244973,100.318309 L387.244973,99.8682442 C426.30227,99.8682442 457.963243,131.552786 457.963243,170.639158 L457.963243,268.642438 C457.963243,279.804038 467.00627,288.853797 478.152649,288.853797 C489.305946,288.853797 498.348973,279.804038 498.348973,268.642438 L498.348973,170.639158 C498.348973,109.229586 448.601946,59.4524506 387.244973,59.4524506" id="Fill-11" fill="#FBAE3A"/>
                <path d="M387.245665,59.4524506 L387.245665,59.4524506 L338.820151,59.4524506 C382.7968,59.4524506 420.691719,85.0922799 438.694746,122.18452 C450.609124,134.848643 457.963935,151.868006 457.963935,170.639158 L457.963935,268.642438 C457.963935,279.804038 467.006962,288.853797 478.153341,288.853797 C489.306638,288.853797 498.349665,279.804038 498.349665,268.642438 L498.349665,170.639158 C498.349665,109.229586 448.602638,59.4524506 387.245665,59.4524506" id="Fill-16" fill="#010202" opacity="0.15"/>
                <g id="Group-15" transform="translate(60.351351, 48.144354)" fill="#2E2E30">
                    <path d="M326.892238,41.3357086 C371.609211,41.3357086 407.988886,77.7424659 407.988886,122.492727 L407.988886,220.496006 C407.988886,225.917553 412.389319,230.314337 417.806832,230.314337 C423.217427,230.314337 427.617859,225.917553 427.617859,220.496006 L427.617859,122.492727 C427.617859,66.9132212 382.4304,21.6921235 326.892238,21.6921235 L20.9929946,21.6921235 L20.9929946,41.7857731 L323.986292,41.7857731 C324.906508,41.4949622 325.882076,41.3357086 326.892238,41.3357086 M417.806832,251.086545 C400.945427,251.086545 387.23213,237.369964 387.23213,220.496006 L387.23213,122.492727 C387.23213,90.1019299 361.625211,63.5896679 329.604454,62.1702336 C328.739589,62.4195001 327.833211,62.5579815 326.892238,62.5579815 L10.6146162,62.5579815 C4.88575135,62.5579815 0.236237838,57.9119309 0.236237838,52.1718773 L0.236237838,11.3060193 C0.236237838,5.56596566 4.88575135,0.919915037 10.6146162,0.919915037 L326.892238,0.919915037 C393.881211,0.919915037 448.374616,55.4608103 448.374616,122.492727 L448.374616,220.496006 C448.374616,237.369964 434.661319,251.086545 417.806832,251.086545" id="Fill-13"/>
                </g>
                <g id="Group-20" transform="translate(338.046570, 58.992493)"/>
                <path d="M332.410465,59.4524506 L71.7401946,59.4524506 C47.9944649,59.4524506 28.7391135,40.1896893 28.7391135,16.4193588 L28.7391135,11.3717122 L332.410465,11.3717122 L332.410465,59.4524506 Z" id="Fill-21" fill="#FEFEFE"/>
                <polygon id="Fill-26" fill="#010202" opacity="0.15" points="283.980108 59.4545278 332.412541 59.4545278 332.412541 11.3737894 283.980108 11.3737894"/>
                <g id="Group-25" transform="translate(17.837838, 0.599937)" fill="#2E2E30">
                    <path d="M21.7162378,21.1578791 C24.2693189,36.6262503 37.7266162,48.4664091 53.9030486,48.4664091 L304.194941,48.4664091 L304.194941,21.1578791 L21.7162378,21.1578791 Z M314.573319,69.2386176 L53.9030486,69.2386176 C24.4699676,69.2386176 0.523589189,45.2744131 0.523589189,15.8194215 L0.523589189,10.7717749 C0.523589189,5.03172129 5.1731027,0.38567067 10.9088865,0.38567067 L314.573319,0.38567067 C320.302184,0.38567067 324.951697,5.03172129 324.951697,10.7717749 L324.951697,58.8525133 C324.951697,64.5856429 320.302184,69.2386176 314.573319,69.2386176 L314.573319,69.2386176 Z" id="Fill-23"/>
                </g>
                <path d="M148.702789,205.21173 L86.854573,205.21173 C81.1187892,205.21173 76.4761946,200.558755 76.4761946,194.825625 C76.4761946,189.092496 81.1187892,184.439521 86.854573,184.439521 L148.702789,184.439521 C154.431654,184.439521 159.081168,189.092496 159.081168,194.825625 C159.081168,200.558755 154.431654,205.21173 148.702789,205.21173" id="Fill-28" fill="#2E2E30"/>
                <path d="M148.702789,171.085068 L117.775222,171.085068 C112.046357,171.085068 107.396843,166.432094 107.396843,160.698964 C107.396843,154.958911 112.046357,150.31286 117.775222,150.31286 L148.702789,150.31286 C154.431654,150.31286 159.081168,154.958911 159.081168,160.698964 C159.081168,166.432094 154.431654,171.085068 148.702789,171.085068" id="Fill-30" fill="#2E2E30"/>
                <path d="M148.702789,270.144961 L86.854573,270.144961 C81.1187892,270.144961 76.4761946,265.491986 76.4761946,259.758857 C76.4761946,254.025727 81.1187892,249.372752 86.854573,249.372752 L148.702789,249.372752 C154.431654,249.372752 159.081168,254.025727 159.081168,259.758857 C159.081168,265.491986 154.431654,270.144961 148.702789,270.144961" id="Fill-32" fill="#2E2E30"/>
                <path d="M148.702789,236.025224 L117.775222,236.025224 C112.046357,236.025224 107.396843,231.372249 107.396843,225.639119 C107.396843,219.90599 112.046357,215.253015 117.775222,215.253015 L148.702789,215.253015 C154.431654,215.253015 159.081168,219.90599 159.081168,225.639119 C159.081168,231.372249 154.431654,236.025224 148.702789,236.025224" id="Fill-34" fill="#2E2E30"/>
            </g>
        </g>
    </g>

</svg>
