<?xml version="1.0" encoding="UTF-8"?>
<svg xmlns="http://www.w3.org/2000/svg" xmlnsXlink="http://www.w3.org/1999/xlink" width="96px" height="96px" viewBox="0 0 512 512" version="1.1">
    
    <title>Hot coffee</title>
    <desc>Created with Sketch.</desc>
    <defs>
        <polygon id="path-1" points="3.67080674e-19 6.56930909 3.67080674e-19 74.0679758 310.738145 74.0679758 310.738145 6.56930909 0 6.56930909"/>
    </defs>
    <g id="SVG" stroke="none" stroke-width="1" fill="none" fill-rule="evenodd">
        <g id="Hot-coffee">
            <g id="11" transform="translate(56.000000, 2.000000)">
                <path d="M245.885324,495.366691 L102.15467,495.366691 C71.9472616,495.366691 47.4549514,470.821721 47.4549514,440.540994 L47.4549514,155.823418 C47.4549514,155.572267 47.6580947,155.36863 47.9086381,155.36863 L300.124585,155.36863 C300.375128,155.36863 300.578271,155.572267 300.578271,155.823418 L300.578271,440.540994 C300.578271,470.821721 276.092733,495.366691 245.885324,495.366691" id="Fill-1" fill="#FEFEFE"/>
                <g id="Group-5" transform="translate(36.857216, 144.999661)">
                    <path d="M20.7596401,20.5548606 L20.7596401,295.545406 C20.7596401,320.158255 40.7353976,340.182497 65.2954223,340.182497 L209.032848,340.182497 C233.592873,340.182497 253.56863,320.158255 253.56863,295.545406 L253.56863,20.5548606 L20.7596401,20.5548606 Z M209.032848,360.546133 L65.2954223,360.546133 C29.5354305,360.546133 0.445310324,331.385406 0.445310324,295.545406 L0.445310324,10.8210424 C0.445310324,5.20067879 5.44263544,0.191224242 11.0493904,0.191224242 L263.265337,0.191224242 C268.878863,0.191224242 273.88296,5.20067879 273.88296,10.8210424 L273.88296,295.545406 C273.88296,331.385406 244.79284,360.546133 209.032848,360.546133 L209.032848,360.546133 Z" id="Fill-3" fill="#2E2E30"/>
                    <path d="M65.2947451,350.366352 L209.025399,350.366352 C239.232808,350.366352 263.725118,325.821382 263.725118,295.540655 L263.725118,180.67617 L263.718347,180.370715 L10.601798,180.370715 L10.601798,295.540655 C10.601798,325.821382 35.0873368,350.366352 65.2947451,350.366352" id="Fill-38" fill="#513A2B"/>
                    <path d="M263.270077,10.3703273 L215.869974,10.3703273 C216.120518,10.3703273 216.323661,10.5739636 216.323661,10.8251152 L216.323661,295.542691 C216.323661,325.81663 191.831351,350.368388 161.630714,350.368388 L209.030817,350.368388 C239.231454,350.368388 263.723764,325.81663 263.723764,295.542691 L263.723764,10.8251152 C263.723764,10.5739636 263.52062,10.3703273 263.270077,10.3703273" id="Fill-43" fill="#010202" opacity="0.15"/>
                </g>
                <path d="M325.237836,165.462885 L300.57624,165.462885 L300.57624,206.18337 L318.804965,206.18337 C333.099482,206.18337 344.685421,217.79743 344.685421,232.126642 L344.685421,384.616339 C344.685421,398.945552 333.099482,410.559612 318.804965,410.559612 L300.57624,410.559612 L300.57624,440.541673 C300.57624,444.220703 300.203811,447.804703 299.513123,451.280097 L325.237836,451.280097 C356.995905,451.280097 382.747704,425.472582 382.747704,393.630642 L382.747704,223.112339 C382.747704,191.2704 356.995905,165.462885 325.237836,165.462885" id="Fill-6" fill="#FEFEFE"/>
                <path d="M325.237836,165.462885 L300.57624,165.462885 L300.57624,206.18337 L318.804965,206.18337 C333.099482,206.18337 344.685421,217.79743 344.685421,232.126642 L344.685421,384.616339 C344.685421,398.945552 333.099482,410.559612 318.804965,410.559612 L300.57624,410.559612 L300.57624,440.541673 C300.57624,444.220703 300.203811,447.804703 299.513123,451.280097 L325.237836,451.280097 C356.995905,451.280097 382.747704,425.472582 382.747704,393.630642 L382.747704,223.112339 C382.747704,191.2704 356.995905,165.462885 325.237836,165.462885" id="Fill-11" fill="#010202" opacity="0.15"/>
                <g id="Group-10" transform="translate(288.400616, 154.575418)" fill="#2E2E30">
                    <path d="M22.3382056,286.524897 L36.8426371,286.524897 C62.9465508,286.524897 84.1885683,265.231321 84.1885683,239.057261 L84.1885683,68.5389576 C84.1885683,42.3581091 62.9465508,21.0713212 36.8426371,21.0713212 L22.3382056,21.0713212 L22.3382056,41.4281697 L30.4029946,41.4281697 C50.2771805,41.4281697 66.4406155,57.6308364 66.4406155,77.5532606 L66.4406155,230.042958 C66.4406155,249.958594 50.2771805,266.168048 30.4029946,266.168048 L22.3382056,266.168048 L22.3382056,285.968291 L22.3382056,286.524897 Z M36.8426371,306.888533 L11.1179242,306.888533 C8.07754617,306.888533 5.19968279,305.52417 3.26982147,303.168776 C1.3331887,300.806594 0.561244171,297.711321 1.15035973,294.724655 C1.73270385,291.805867 2.02387591,288.859927 2.02387591,285.968291 L2.02387591,255.98623 C2.02387591,250.365867 6.57428577,245.804412 12.1810408,245.804412 L30.4029946,245.804412 C39.0772134,245.804412 46.1262858,238.731442 46.1262858,230.042958 L46.1262858,77.5532606 C46.1262858,68.8647758 39.0772134,61.7918061 30.4029946,61.7918061 L12.1810408,61.7918061 C6.57428577,61.7918061 2.02387591,57.2303515 2.02387591,51.6099879 L2.02387591,10.889503 C2.02387591,5.26235152 6.57428577,0.707684848 12.1810408,0.707684848 L36.8426371,0.707684848 C74.1465179,0.707684848 104.502898,31.1377455 104.502898,68.5389576 L104.502898,239.057261 C104.502898,276.458473 74.1465179,306.888533 36.8426371,306.888533 L36.8426371,306.888533 Z" id="Fill-8"/>
                </g>
                <path d="M300.578949,155.370667 L52.2362675,155.370667 C28.9966743,155.370667 10.1517477,136.486788 10.1517477,113.184 L10.1517477,108.235636 L300.578949,108.235636 L300.578949,155.370667 Z" id="Fill-13" fill="#FEFEFE"/>
                <g id="Group-17" transform="translate(0.000000, 91.484509)">
                    <mask id="mask-2" fill="white">
                        <use xlink:href="#path-1"/>
                    </mask>
                    <g id="Clip-16"/>
                    <path d="M20.7375449,26.9329455 C23.2362075,42.0970667 36.4066646,53.7043394 52.2315275,53.7043394 L290.423815,53.7043394 L290.423815,26.9329455 L20.7375449,26.9329455 Z M300.58098,74.0679758 L52.2315275,74.0679758 C23.4258079,74.0679758 -0.00338572162,50.5751273 -0.00338572162,21.6994909 L-0.00338572162,16.7511273 C-0.00338572162,11.1307636 4.54702414,6.56930909 10.1605506,6.56930909 L300.58098,6.56930909 C306.187735,6.56930909 310.738145,11.1307636 310.738145,16.7511273 L310.738145,63.8861576 C310.738145,69.5065212 306.187735,74.0679758 300.58098,74.0679758 L300.58098,74.0679758 Z" id="Fill-15" fill="#2E2E30" mask="url(#mask-2)"/>
                </g>
                <polygon id="Fill-18" fill="#010202" opacity="0.15" points="253.177492 155.372024 300.577594 155.372024 300.577594 108.236994 253.177492 108.236994"/>
                <path d="M300.578949,105.741091 L47.4556286,105.741091 L47.4556286,105.741091 C47.4556286,79.7095758 68.5080456,58.6060606 94.4765305,58.6060606 L253.558047,58.6060606 C279.526531,58.6060606 300.578949,79.7095758 300.578949,105.741091 L300.578949,105.741091 Z" id="Fill-20" fill="#FBAE3A"/>
                <path d="M59.0381822,95.5613091 L289.003166,95.5613091 C284.581414,80.1188848 270.368154,68.7899152 253.561432,68.7899152 L94.4731447,68.7899152 C77.673194,68.7899152 63.4531632,80.1188848 59.0381822,95.5613091 M300.710992,115.924945 C300.683906,115.931733 300.636506,115.931733 300.582334,115.924945 L47.4590143,115.924945 C41.8522593,115.924945 37.3018494,111.363491 37.3018494,105.743127 C37.3018494,74.1387636 62.9520764,48.4262788 94.4731447,48.4262788 L253.561432,48.4262788 C284.473071,48.4262788 309.737326,73.1477333 310.712413,103.903612 C310.820756,104.500945 310.868157,105.118642 310.868157,105.743127 C310.868157,111.363491 306.33129,115.924945 300.710992,115.924945" id="Fill-22" fill="#2E2E30"/>
                <path d="M253.558047,58.6067394 L206.157944,58.6067394 C232.126429,58.6067394 253.178846,79.7102545 253.178846,105.74177 L300.578949,105.74177 C300.578949,79.7102545 279.526531,58.6067394 253.558047,58.6067394" id="Fill-24" fill="#010202" opacity="0.15"/>
                <path d="M195.741433,33.0245818 C195.741433,45.1409455 185.943154,54.9562182 173.8629,54.9562182 C161.775873,54.9562182 151.977595,45.1409455 151.977595,33.0245818 C151.977595,20.9082182 161.775873,11.0929455 173.8629,11.0929455 C185.943154,11.0929455 195.741433,20.9082182 195.741433,33.0245818" id="Fill-26" fill="#FBAE3A"/>
                <path d="M173.862222,21.2720485 C167.395494,21.2720485 162.140854,26.5394424 162.140854,33.0218667 C162.140854,39.5110788 167.395494,44.7784727 173.862222,44.7784727 C180.328951,44.7784727 185.583591,39.5110788 185.583591,33.0218667 C185.583591,26.5394424 180.328951,21.2720485 173.862222,21.2720485 M173.862222,65.1421091 C156.195527,65.1421091 141.826524,50.7382303 141.826524,33.0218667 C141.826524,15.3122909 156.195527,0.908412121 173.862222,0.908412121 C191.528918,0.908412121 205.89792,15.3122909 205.89792,33.0218667 C205.89792,50.7382303 191.528918,65.1421091 173.862222,65.1421091" id="Fill-28" fill="#2E2E30"/>
                <path d="M173.861545,159.265552 L173.861545,435.30143" id="Fill-30" fill="#FEFEFE"/>
                <path d="M173.862222,445.481891 C168.255467,445.481891 163.705058,440.920436 163.705058,435.300073 L163.705058,159.264194 C163.705058,153.64383 168.255467,149.082376 173.862222,149.082376 C179.468978,149.082376 184.019387,153.64383 184.019387,159.264194 L184.019387,435.300073 C184.019387,440.920436 179.468978,445.481891 173.862222,445.481891" id="Fill-32" fill="#2E2E30"/>
                <path d="M94.8584399,440.540315 L257.251192,440.540315" id="Fill-34" fill="#FEFEFE"/>
                <path d="M257.248483,450.724848 L94.8625027,450.724848 C89.2489763,450.724848 84.7053379,446.163394 84.7053379,440.54303 C84.7053379,434.922667 89.2489763,430.361212 94.8625027,430.361212 L257.248483,430.361212 C262.855238,430.361212 267.405648,434.922667 267.405648,440.54303 C267.405648,446.163394 262.855238,450.724848 257.248483,450.724848" id="Fill-36" fill="#2E2E30"/>
                <g id="Group-42" transform="translate(34.909091, 314.514812)" fill="#2E2E30">
                    <path d="M22.7077654,21.0353455 L22.7077654,126.030255 C22.7077654,150.643103 42.683523,170.667345 67.2435476,170.667345 L210.980973,170.667345 C235.540998,170.667345 255.516756,150.643103 255.516756,126.030255 L255.516756,21.0353455 L22.7077654,21.0353455 Z M210.980973,191.030982 L67.2435476,191.030982 C31.4835558,191.030982 2.39343564,161.870255 2.39343564,126.030255 L2.39343564,10.8535273 C2.39343564,5.23316364 6.94384551,0.671709091 12.5506005,0.671709091 L265.67392,0.671709091 C271.280676,0.671709091 275.831085,5.23316364 275.831085,10.8535273 L275.831085,126.030255 C275.831085,161.870255 246.740965,191.030982 210.980973,191.030982 L210.980973,191.030982 Z" id="Fill-40"/>
                </g>
            </g>
        </g>
    </g>
</svg>
