<?xml version="1.0" encoding="UTF-8"?>
<svg xmlns="http://www.w3.org/2000/svg" xmlnsXlink="http://www.w3.org/1999/xlink" width="96px" height="96px" viewBox="0 0 512 512" version="1.1">
    
    <title>Kettle</title>
    <desc>Created with Sketch.</desc>
    <defs>
        <polygon id="path-1" points="1.11151422 55.3513514 263.236706 55.3513514 263.236706 2.21612973 1.11151422 2.21612973 1.11151422 55.3513514"/>
    </defs>
    <g id="SVG" stroke="none" stroke-width="1" fill="none" fill-rule="evenodd">
        <g id="Kettle">
            <g id="12" transform="translate(86.000000, 6.000000)">
                <polygon id="Fill-1" fill="#B4814A" points="242.262872 156.36973 93.2038375 156.36973 64.5450193 92.8540541 270.928602 92.8540541"/>
                <g id="Group-44" transform="translate(0.000000, 0.358443)">
                    <polygon id="Fill-8" fill="#010202" opacity="0.15" points="222.541098 92.4963027 193.875367 156.011978 242.26218 156.011978 270.927911 92.4963027"/>
                    <path d="M99.9033374,145.634984 L235.566137,145.634984 L254.865563,102.876065 L80.6039113,102.876065 L99.9033374,145.634984 Z M242.264254,166.391741 L93.20522,166.391741 C89.1269029,166.391741 85.4356803,163.997795 83.7559666,160.282335 L55.0971484,96.7735784 C53.645544,93.5632 53.9289525,89.8339027 55.8367754,86.8726054 C57.7376859,83.9113081 61.0210768,82.1193081 64.5464018,82.1193081 L270.923072,82.1193081 C274.448397,82.1193081 277.731788,83.9113081 279.632699,86.8726054 C281.540522,89.8339027 281.82393,93.5632 280.372326,96.7735784 L251.713508,160.282335 C250.033794,163.997795 246.342571,166.391741 242.264254,166.391741 L242.264254,166.391741 Z" id="Fill-2" fill="#2E2E30"/>
                    <polygon id="Fill-4" fill="#B4814A" points="242.262872 156.011286 93.2038375 156.011286 64.5450193 219.526962 270.928602 219.526962"/>
                    <polygon id="Fill-10" fill="#010202" opacity="0.15" points="242.262872 156.011286 193.876059 156.011286 222.541789 219.526962 270.928602 219.526962"/>
                    <path d="M80.6039113,209.148584 L254.865563,209.148584 L235.566137,166.389665 L99.9033374,166.389665 L80.6039113,209.148584 Z M270.923072,229.905341 L64.5464018,229.905341 C61.0210768,229.905341 57.7376859,228.113341 55.8367754,225.152043 C53.9289525,222.197665 53.645544,218.468368 55.0971484,215.257989 L83.7559666,151.742314 C85.4356803,148.026854 89.1269029,145.632908 93.20522,145.632908 L242.264254,145.632908 C246.342571,145.632908 250.033794,148.026854 251.713508,151.742314 L280.372326,215.257989 C281.82393,218.468368 281.540522,222.197665 279.632699,225.152043 C277.731788,228.113341 274.448397,229.905341 270.923072,229.905341 L270.923072,229.905341 Z" id="Fill-6" fill="#2E2E30"/>
                    <polygon id="Fill-12" fill="#FEFEFE" points="40.7753429 10.9402378 87.9248362 92.4935351 247.54602 92.4935351 294.695514 10.9402378"/>
                    <polygon id="Fill-17" fill="#010202" opacity="0.15" points="246.307318 10.9402378 199.157825 92.4935351 247.544638 92.4935351 294.694131 10.9402378"/>
                    <g id="Group-16" transform="translate(29.649608, 0.000000)" fill="#2E2E30">
                        <path d="M64.2523825,82.1213838 L211.915112,82.1213838 L247.064675,21.3179243 L29.102819,21.3179243 L64.2523825,82.1213838 Z M217.901252,102.878141 L58.2731549,102.878141 C54.5750199,102.878141 51.1464686,100.906249 49.2939449,97.6958703 L2.15136402,16.1356541 C0.298840314,12.9252757 0.291927912,8.96765405 2.14445162,5.75727568 C3.99697532,2.53997838 7.41861425,0.561167568 11.1236617,0.561167568 L265.043832,0.561167568 C268.74888,0.561167568 272.170519,2.53997838 274.029955,5.75727568 C275.875566,8.96765405 275.868654,12.9252757 274.023043,16.1356541 L226.873549,97.6958703 C225.021026,100.906249 221.599387,102.878141 217.901252,102.878141 L217.901252,102.878141 Z" id="Fill-14"/>
                    </g>
                    <path d="M251.693462,219.524886 L168.240034,219.524886 L167.230823,219.524886 L83.777395,219.524886 L15.1095947,386.443805 C1.29170336,421.418941 27.0404004,459.327697 64.616217,459.327697 L167.230823,459.327697 L168.240034,459.327697 L270.85464,459.327697 C308.430456,459.327697 334.179153,421.418941 320.361262,386.443805 L251.693462,219.524886 Z" id="Fill-19" fill="#FEFEFE"/>
                    <path d="M15.1061385,386.443114 C1.28824716,421.418249 27.0438566,459.327005 64.6127608,459.327005 L167.227367,459.327005 L168.24349,459.327005 L270.858096,459.327005 C308.427,459.327005 334.175697,421.418249 320.364718,386.443114 L299.351016,335.367654 L36.1198403,335.367654 L15.1061385,386.443114 Z" id="Fill-37" fill="#513A2B"/>
                    <path d="M320.363336,386.443114 L251.695535,219.524195 L203.308722,219.524195 L271.976522,386.443114 C285.794414,421.418249 260.038804,459.327005 222.4699,459.327005 L270.856713,459.327005 C308.425618,459.327005 334.181227,421.418249 320.363336,386.443114" id="Fill-42" fill="#010202" opacity="0.15"/>
                    <g id="Group-23" transform="translate(0.000000, 208.567568)" fill="#2E2E30">
                        <path d="M90.7229765,21.337773 L24.6888013,181.829016 C19.4422882,195.113341 21.0597903,209.663827 29.1680377,221.598962 C37.2762851,233.534097 50.1955642,240.376908 64.6148345,240.376908 L270.86017,240.376908 C285.27944,240.376908 298.198719,233.534097 306.300054,221.598962 C314.408301,209.663827 316.025803,195.113341 310.723991,181.697557 L244.745115,21.337773 L90.7229765,21.337773 Z M270.86017,261.133665 L64.6148345,261.133665 C43.5320088,261.133665 23.8731378,250.713773 12.0183686,233.271178 C0.15668697,215.821665 -2.2903033,193.688043 5.46541162,174.05907 L74.1885111,7.00869189 C75.7921884,3.12025946 79.5801846,0.581016216 83.7760126,0.581016216 L251.692079,0.581016216 C255.894819,0.581016216 259.675903,3.12025946 261.279581,7.00869189 L329.947381,173.927611 C337.758395,193.688043 335.311405,215.821665 323.449723,233.271178 C311.594954,250.713773 291.936083,261.133665 270.86017,261.133665 L270.86017,261.133665 Z" id="Fill-21"/>
                    </g>
                    <path d="M262.993165,491.704086 L72.4735442,491.704086 C58.4275436,491.704086 47.0359053,473.382789 47.0359053,459.323546 L47.0359053,459.323546 L288.430804,459.323546 L288.430804,459.323546 C288.430804,473.382789 277.039166,491.704086 262.993165,491.704086" id="Fill-24" fill="#FEFEFE"/>
                    <g id="Group-28" transform="translate(35.562009, 446.729730)">
                        <mask id="mask-2" fill="white">
                            <use xlink:href="#path-1"/>
                        </mask>
                        <g id="Clip-27"/>
                        <path d="M24.3855714,22.9728865 C27.371729,29.3590486 32.4730816,34.5966703 36.9108436,34.5966703 L227.430464,34.5966703 C231.875139,34.5966703 236.976491,29.3590486 239.962649,22.9728865 L24.3855714,22.9728865 Z M227.430464,55.353427 L36.9108436,55.353427 C16.7542797,55.353427 1.11151422,32.3618595 1.11151422,12.5945081 C1.11151422,6.86564324 5.75664829,2.21612973 11.480117,2.21612973 L252.868103,2.21612973 C258.591572,2.21612973 263.236706,6.86564324 263.236706,12.5945081 C263.236706,32.3618595 247.593941,55.353427 227.430464,55.353427 L227.430464,55.353427 Z" id="Fill-26" fill="#2E2E30" mask="url(#mask-2)"/>
                    </g>
                    <path d="M240.043299,459.32493 C240.043299,473.384173 228.651661,491.70547 214.605661,491.70547 L262.992474,491.70547 C277.038474,491.70547 288.430113,473.384173 288.430113,459.32493 L240.043299,459.32493 Z" id="Fill-29" fill="#010202" opacity="0.15"/>
                    <path d="M291.310511,155.338076 C291.310511,165.709535 282.911942,174.116022 272.550252,174.116022 C262.181649,174.116022 253.783081,165.709535 253.783081,155.338076 C253.783081,144.966616 262.181649,136.56013 272.550252,136.56013 C282.911942,136.56013 291.310511,144.966616 291.310511,155.338076" id="Fill-31" fill="#FEFEFE"/>
                    <path d="M272.544722,146.932281 C267.920325,146.932281 264.153066,150.703092 264.153066,155.338768 C264.153066,159.974443 267.920325,163.745254 272.544722,163.745254 C277.176031,163.745254 280.94329,159.974443 280.94329,155.338768 C280.94329,150.703092 277.176031,146.932281 272.544722,146.932281 M272.544722,184.502011 C256.487212,184.502011 243.41586,171.418335 243.41586,155.338768 C243.41586,139.2592 256.487212,126.175524 272.544722,126.175524 C288.609144,126.175524 301.680496,139.2592 301.680496,155.338768 C301.680496,171.418335 288.609144,184.502011 272.544722,184.502011" id="Fill-33" fill="#2E2E30"/>
                    <path d="M324.158244,253.567351 C323.736588,253.567351 323.321844,253.539676 322.893275,253.491243 C317.21128,252.799351 313.160613,247.630919 313.851853,241.936649 C315.8288,225.677189 311.833432,212.904865 305.964803,203.259892 C306.531619,219.941405 300.953311,231.288432 300.559304,232.07027 C297.967154,237.183351 291.725255,239.224432 286.61699,236.629838 C281.536374,234.049081 279.490303,227.84973 282.027155,222.750486 C282.538673,221.678054 292.167648,200.776 275.729957,175.404324 C273.220755,171.52973 273.573287,166.458162 276.594007,162.964108 C279.600902,159.476973 284.564006,158.397622 288.766747,160.328 C307.070787,168.762162 340.167367,197.198919 334.436986,244.441297 C333.801045,249.699676 329.328721,253.567351 324.158244,253.567351" id="Fill-35" fill="#2E2E30"/>
                    <g id="Group-41" transform="translate(0.000000, 324.189189)" fill="#2E2E30">
                        <path d="M43.0647304,21.5540757 L24.6915662,66.2087784 C19.4450532,79.4931027 21.0556428,94.0435892 29.1638902,105.978724 C37.2721376,117.913859 50.1914168,124.75667 64.6106871,124.75667 L270.856022,124.75667 C285.275292,124.75667 298.194572,117.913859 306.302819,105.978724 C314.411066,94.0435892 316.021656,79.4931027 310.726756,66.0773189 L292.401979,21.5540757 L43.0647304,21.5540757 Z M270.856022,145.513427 L64.6106871,145.513427 C43.5278614,145.513427 23.8759028,135.093535 12.0211336,117.650941 C0.159451931,100.201427 -2.29445074,78.0678054 5.46817658,58.4388324 L26.5302651,7.22499459 C28.1339424,3.33656216 31.9219386,0.797318919 36.1177665,0.797318919 L299.348943,0.797318919 C303.551683,0.797318919 307.332767,3.33656216 308.936444,7.22499459 L329.950146,58.307373 C337.76116,78.0678054 335.307257,100.201427 323.452488,117.650941 C311.597719,135.093535 291.938848,145.513427 270.856022,145.513427 L270.856022,145.513427 Z" id="Fill-39"/>
                    </g>
                </g>
            </g>
        </g>
    </g>

</svg>
