<?xml version="1.0" encoding="UTF-8"?>
<svg class='flair-image' xmlns="http://www.w3.org/2000/svg" xmlnsXlink="http://www.w3.org/1999/xlink" width="96px" height="96px" viewBox="0 0 512 512" version="1.1">
    
    <title>Paper cup</title>
    <desc>Created with Sketch.</desc>
    <defs/>
    <g id="SVG" stroke="none" stroke-width="1" fill="none" fill-rule="evenodd">
        <g id="Paper-cup">
            <g id="4" transform="translate(91.000000, 2.000000)">
                <polygon id="Fill-1" fill="#FEFEFE" points="266.00055 493.834323 59.7427176 493.834323 30.9612824 115.097683 294.781985 115.097683"/>
                <polygon id="Fill-4" fill="#010202" opacity="0.15" points="246.902754 115.100414 218.121319 493.837054 265.999182 493.837054 294.780617 115.100414"/>
                <g id="Group-25" transform="translate(0.000000, 0.901672)">
                    <path d="M69.2560489,482.693333 L256.48585,482.693333 L283.707835,124.436693 L42.0340641,124.436693 L69.2560489,482.693333 L69.2560489,482.693333 Z M265.999866,503.173333 L59.7420336,503.173333 C54.379713,503.173333 49.9202321,499.050027 49.5098504,493.704747 L20.7284153,114.974933 C20.5163847,112.13504 21.5013008,109.32928 23.443774,107.24032 C25.3794076,105.144533 28.1016061,103.956693 30.9605985,103.956693 L294.781301,103.956693 C297.640293,103.956693 300.362492,105.144533 302.298125,107.24032 C304.240598,109.32928 305.225515,112.13504 305.013484,114.974933 L276.232049,493.704747 C275.821667,499.050027 271.362186,503.173333 265.999866,503.173333 L265.999866,503.173333 Z" id="Fill-2" fill="#2E2E30"/>
                    <polygon id="Fill-6" fill="#B4814A" points="288.306846 413.769259 37.4336855 413.769259 11.258174 158.615765 314.482357 158.615765"/>
                    <polygon id="Fill-11" fill="#010202" opacity="0.15" points="266.606547 158.6144 240.431035 413.767893 288.308898 413.767893 314.484409 158.6144"/>
                    <g id="Group-10" transform="translate(0.000000, 148.186667)" fill="#2E2E30">
                        <path d="M46.6994198,255.343275 L279.043847,255.343275 L303.119573,20.6697813 L22.616855,20.6697813 L46.6994198,255.343275 Z M288.304794,275.823275 L37.4384733,275.823275 C32.1719084,275.823275 27.7603053,271.850155 27.2268092,266.627755 L1.05129771,11.4674347 C0.75719084,8.58658133 1.7010687,5.71938133 3.64354198,3.56215467 C5.58601527,1.41175467 8.3560916,0.189781333 11.2561221,0.189781333 L314.480305,0.189781333 C317.387176,0.189781333 320.150412,1.41175467 322.099725,3.56215467 C324.042198,5.71938133 324.986076,8.58658133 324.691969,11.4674347 L298.509618,266.627755 C297.976122,271.850155 293.571359,275.823275 288.304794,275.823275 L288.304794,275.823275 Z" id="Fill-8"/>
                    </g>
                    <polygon id="Fill-13" fill="#513A2B" points="11.6357252 114.770133 314.114382 114.770133 314.114382 63.6452267 11.6357252 63.6452267"/>
                    <polygon id="Fill-16" fill="#010202" opacity="0.15" points="266.236519 114.770133 314.483725 114.770133 314.483725 63.6452267 266.236519 63.6452267"/>
                    <path d="M21.8952672,104.523307 L303.85484,104.523307 L303.85484,73.8852267 L21.8952672,73.8852267 L21.8952672,104.523307 Z M314.107542,125.003307 L11.6357252,125.003307 C5.96561832,125.003307 1.37618321,120.422613 1.37618321,114.763307 L1.37618321,63.6452267 C1.37618321,57.9927467 5.96561832,53.4052267 11.6357252,53.4052267 L314.107542,53.4052267 C319.770809,53.4052267 324.367084,57.9927467 324.367084,63.6452267 L324.367084,114.763307 C324.367084,120.422613 319.770809,125.003307 314.107542,125.003307 L314.107542,125.003307 Z" id="Fill-15" fill="#2E2E30"/>
                    <polygon id="Fill-17" fill="#513A2B" points="276.459127 10.2565973 49.2855084 10.2565973 31.4544244 63.6479573 294.290211 63.6479573"/>
                    <polygon id="Fill-19" fill="#010202" opacity="0.15" points="276.459127 10.2559147 228.581264 10.2559147 246.412348 63.6472747 294.290211 63.6472747"/>
                    <path d="M45.6844092,53.406592 L280.060226,53.406592 L269.061997,20.495232 L56.6757985,20.495232 L45.6844092,53.406592 Z M294.293631,73.886592 L31.4510046,73.886592 C28.1542718,73.886592 25.0558901,72.3028053 23.1270962,69.6335787 C21.1983023,66.964352 20.6784855,63.5305387 21.7181191,60.4039253 L39.5560427,7.019392 C40.9513405,2.83464533 44.8704855,0.015232 49.2820885,0.015232 L276.455707,0.015232 C280.87415,0.015232 284.793295,2.83464533 286.188592,7.019392 L304.026516,60.4039253 C305.06615,63.5305387 304.546333,66.964352 302.610699,69.6335787 C300.681905,72.3028053 297.590363,73.886592 294.293631,73.886592 L294.293631,73.886592 Z" id="Fill-18" fill="#2E2E30"/>
                    <path d="M231.267896,280.246485 C231.267896,317.950165 200.646583,348.513152 162.87095,348.513152 C125.095316,348.513152 94.4740031,317.950165 94.4740031,280.246485 C94.4740031,242.542805 125.095316,211.979819 162.87095,211.979819 C200.646583,211.979819 231.267896,242.542805 231.267896,280.246485" id="Fill-20" fill="#513A2B"/>
                    <path d="M162.874369,222.219819 C130.816721,222.219819 104.736965,248.249899 104.736965,280.246485 C104.736965,312.243072 130.816721,338.273152 162.874369,338.273152 C194.932018,338.273152 221.011774,312.243072 221.011774,280.246485 C221.011774,248.249899 194.932018,222.219819 162.874369,222.219819 M162.874369,358.753152 C119.503866,358.753152 84.2178809,323.534379 84.2178809,280.246485 C84.2178809,236.958592 119.503866,201.739819 162.874369,201.739819 C206.244873,201.739819 241.530858,236.958592 241.530858,280.246485 C241.530858,323.534379 206.244873,358.753152 162.874369,358.753152" id="Fill-21" fill="#2E2E30"/>
                    <path d="M231.267896,280.246485 C231.267896,317.950165 200.646583,348.513152 162.87095,348.513152 C125.095316,348.513152 94.4740031,317.950165 94.4740031,280.246485 C94.4740031,242.542805 125.095316,211.979819 162.87095,211.979819 C200.646583,211.979819 231.267896,242.542805 231.267896,280.246485" id="Fill-22" fill="#513A2B"/>
                    <path d="M195.585893,220.287189 C200.886656,229.987883 203.909802,241.108523 203.909802,252.939136 C203.909802,290.642816 173.288489,321.205803 135.512855,321.205803 C123.659664,321.205803 112.517802,318.195243 102.798595,312.897749 C114.398718,334.115029 136.949191,348.512469 162.871634,348.512469 C200.647267,348.512469 231.26858,317.949483 231.26858,280.245803 C231.26858,254.372736 216.843664,231.865216 195.585893,220.287189" id="Fill-24" fill="#010202" opacity="0.15"/>
                    <path d="M162.874369,222.219819 C130.816721,222.219819 104.736965,248.249899 104.736965,280.246485 C104.736965,312.243072 130.816721,338.273152 162.874369,338.273152 C194.932018,338.273152 221.011774,312.243072 221.011774,280.246485 C221.011774,248.249899 194.932018,222.219819 162.874369,222.219819 M162.874369,358.753152 C119.503866,358.753152 84.2178809,323.534379 84.2178809,280.246485 C84.2178809,236.958592 119.503866,201.739819 162.874369,201.739819 C206.244873,201.739819 241.530858,236.958592 241.530858,280.246485 C241.530858,323.534379 206.244873,358.753152 162.874369,358.753152" id="Fill-23" fill="#2E2E30"/>
                </g>
            </g>
        </g>
    </g>

</svg>
