<svg style="object-fit:cover" id="my-svg" version="1" baseProfile="full" width="100%" height="100%" viewBox="0 0 1657 862" xmlns="http://www.w3.org/2000/svg"><rect width="1657" height="862" fill="#e04f00"/><defs><linearGradient id="linear-gradient" x1="0" x2="0" y1="1" y2="0"><stop offset="0%" stop-color="#ef018c50"/><stop offset="100%" stop-color="#ffee0050"/></linearGradient></defs><path transform="scale(-1, 1)" d="M 0,862 V 0,86 C 74.05118868240415,92.47078960585793 148.1023773648083,98.94157921171588 194,92 C 239.8976226351917,85.05842078828412 257.64167922317097,64.70447275899441 310,67 C 362.35832077682903,69.29552724100559 449.330905742508,94.24052975230643 509,107 C 568.669094257492,119.75947024769357 601.0346978067972,120.33340823177984 660,117 C 718.9653021932028,113.66659176822016 804.530303030303,106.42583732057417 856,99 C 907.469696969697,91.57416267942583 924.8440900719906,83.9632424859235 979,75 C 1033.1559099280094,66.0367575140765 1124.0933366817344,55.72119273573186 1186,62 C 1247.9066633182656,68.27880726426814 1280.7825632010715,91.1519865711491 1321,90 C 1361.2174367989285,88.8480134288509 1408.7764105139797,63.67086097967169 1466,59 C 1523.2235894860203,54.32913902032831 1590.1117947430103,70.16456951016416 1657,86 C 1657,86 1657,862 1657,862 Z" stroke="none" stroke-width="0" fill="url(#linear-gradient)" class="transition-all duration-300 ease-in-out delay-150" style="transform-origin: center center;"/><defs><linearGradient id="linear-gradient" x1="0" x2="0" y1="1" y2="0"><stop offset="0%" stop-color="#ef018c60"/><stop offset="100%" stop-color="#ffee0060"/></linearGradient></defs><path transform="scale(-1, 1)" d="M 0,862 V 0,129 C 55.41473252443009,120.57804858706282 110.82946504886019,112.15609717412566 162,118 C 213.1705349511398,123.84390282587434 260.09687232898926,143.95365989056015 321,153 C 381.90312767101074,162.04634010943985 456.7830456351828,160.02926326363374 515,147 C 573.2169543648172,133.97073673636626 614.7709451302792,109.92928705490498 669,113 C 723.2290548697208,116.07071294509502 790.1331738437001,146.2535885167464 852,157 C 913.8668261562999,167.7464114832536 970.6963594949202,159.0563588781094 1013,145 C 1055.3036405050798,130.9436411218906 1083.0813881766194,111.52097597081604 1130,101 C 1176.9186118233806,90.47902402918396 1242.9780877986025,88.85973723862647 1300,103 C 1357.0219122013975,117.14026276137353 1405.0062606289707,147.04007507467816 1463,154 C 1520.9937393710293,160.95992492532184 1588.9968696855146,144.97996246266092 1657,129 C 1657,129 1657,862 1657,862 Z" stroke="none" stroke-width="0" fill="url(#linear-gradient)" class="transition-all duration-300 ease-in-out delay-150" style="transform-origin: center center;"/><defs><linearGradient id="linear-gradient" x1="0" x2="0" y1="1" y2="0"><stop offset="0%" stop-color="#ef018c70"/><stop offset="100%" stop-color="#ffee0070"/></linearGradient></defs><path transform="scale(-1, 1)" d="M 0,862 V 0,193 C 60.4490051723986,206.0942795210024 120.8980103447972,219.18855904200478 179,222 C 237.1019896552028,224.81144095799522 292.8569637932098,217.34004335298317 341,210 C 389.1430362067902,202.65995664701683 429.67413448236357,195.45126754606252 483,197 C 536.3258655176364,198.54873245393748 602.4464982773358,208.85488646276667 663,203 C 723.5535017226642,197.14511353723333 778.5398724082935,175.12918660287085 840,164 C 901.4601275917065,152.87081339712915 969.3940120894904,152.62836712575006 1020,162 C 1070.6059879105096,171.37163287424994 1103.8840792337446,190.35734489412886 1144,188 C 1184.1159207662554,185.64265510587114 1231.0696709755302,161.94225329773457 1299,167 C 1366.9303290244698,172.05774670226543 1455.8372368641342,205.873641914933 1519,215 C 1582.1627631358658,224.126358085067 1619.581381567933,208.5631790425335 1657,193 C 1657,193 1657,862 1657,862 Z" stroke="none" stroke-width="0" fill="url(#linear-gradient)" class="transition-all duration-300 ease-in-out delay-150" style="transform-origin: center center;"/><defs><linearGradient id="linear-gradient" x1="0" x2="0" y1="1" y2="0"><stop offset="0%" stop-color="#ef018c80"/><stop offset="100%" stop-color="#ffee0080"/></linearGradient></defs><path transform="scale(-1, 1)" d="M 0,862 V 0,290 C 57.83661785050269,301.8636231462634 115.67323570100538,313.7272462925269 160,306 C 204.32676429899462,298.2727537074731 235.14367504648112,270.9546379761559 300,271 C 364.8563249535189,271.0453620238441 463.7520641130701,298.45420180284964 525,308 C 586.2479358869299,317.54579819715036 609.848068501238,309.2285548124455 653,305 C 696.151931498762,300.7714451875545 758.8556618819778,300.6315789473684 815,293 C 871.1443381180222,285.3684210526316 920.7292839708512,270.24512939808085 979,271 C 1037.2707160291488,271.75487060191915 1104.2272022346174,288.3879034603082 1159,294 C 1213.7727977653826,299.6120965396918 1256.36190709068,294.2032567606863 1307,296 C 1357.63809290932,297.7967432393137 1416.3251694026628,306.7990694969468 1476,307 C 1535.6748305973372,307.2009305030532 1596.3374152986685,298.6004652515266 1657,290 C 1657,290 1657,862 1657,862 Z" stroke="none" stroke-width="0" fill="url(#linear-gradient)" class="transition-all duration-300 ease-in-out delay-150" style="transform-origin: center center;"/><defs><linearGradient id="linear-gradient" x1="0" x2="0" y1="1" y2="0"><stop offset="0%" stop-color="#ef018c90"/><stop offset="100%" stop-color="#ffee0090"/></linearGradient></defs><path transform="scale(-1, 1)" d="M 0,862 V 0,436 C 68.71353767391861,437.7571439900605 137.42707534783722,439.5142879801211 189,442 C 240.57292465216278,444.4857120198789 275.0052362825698,447.6999920695763 324,447 C 372.9947637174302,446.3000079304237 436.5519795218835,441.6857437415739 502,432 C 567.4480204781165,422.3142562584261 634.786845629896,407.5570329641281 683,404 C 731.213154370104,400.4429670358719 760.3006379585325,408.0861244019138 819,417 C 877.6993620414675,425.9138755980862 966.0106025359732,436.09846942821645 1016,433 C 1065.9893974640268,429.90153057178355 1077.6569518975743,413.51999788522033 1129,406 C 1180.3430481024257,398.48000211477967 1271.36158987373,399.8215390309022 1339,406 C 1406.63841012627,412.1784609690978 1450.896688607506,423.1938459911708 1500,429 C 1549.103311392494,434.8061540088292 1603.051655696247,435.4030770044146 1657,436 C 1657,436 1657,862 1657,862 Z" stroke="none" stroke-width="0" fill="url(#linear-gradient)" class="transition-all duration-300 ease-in-out delay-150" style="transform-origin: center center;"/><defs><linearGradient id="linear-gradient" x1="0" x2="0" y1="1" y2="0"><stop offset="0%" stop-color="#ef018cff"/><stop offset="100%" stop-color="#ffee00ff"/></linearGradient></defs><path transform="scale(-1, 1)" d="M 0,862 V 0,654 C 43.95910324530564,648.2915884638769 87.91820649061128,642.5831769277538 138,644 C 188.08179350938872,645.4168230722462 244.28627728286057,653.9588807528615 302,649 C 359.71372271713943,644.0411192471385 418.93668437794645,625.5813000607999 482,623 C 545.0633156220536,620.4186999392001 611.9669852053539,633.7159190039388 670,646 C 728.0330147946461,658.2840809960612 777.1953748006381,669.555023923445 830,674 C 882.8046251993619,678.444976076555 939.2515155920942,676.0639853022814 1000,668 C 1060.7484844079058,659.9360146977186 1125.798562830985,646.1890348674298 1180,652 C 1234.201437169015,657.8109651325702 1277.5542330839658,683.1798752279996 1331,682 C 1384.4457669160342,680.8201247720004 1447.9845048331526,653.0914642205715 1504,644 C 1560.0154951668474,634.9085357794285 1608.5077475834237,644.4542678897142 1657,654 C 1657,654 1657,862 1657,862 Z" stroke="none" stroke-width="0" fill="url(#linear-gradient)" class="transition-all duration-300 ease-in-out delay-150" style="transform-origin: center center;"/></svg>