<svg style="object-fit:cover" id="my-svg" version="1" baseProfile="full" width="100%" height="100%" viewBox="0 0 1657 862" xmlns="http://www.w3.org/2000/svg"><rect width="1657" height="862" fill="#c3e901"/><defs><linearGradient id="linear-gradient" x1="0" x2="0" y1="1" y2="0"><stop offset="0%" stop-color="#70008f50"/><stop offset="100%" stop-color="#00eeff50"/></linearGradient></defs><path transform="scale(-1, 1)" d="M 0,862 V 0,86 C 64.15117810850583,86.86161410558037 128.30235621701166,87.72322821116074 178,95 C 227.69764378298834,102.27677178883926 262.9417532404592,115.9687012609374 316,116 C 369.0582467595408,116.0312987390626 439.93063082115134,102.40196674508975 502,93 C 564.0693691788487,83.59803325491025 617.3357234749354,78.42343175870364 662,86 C 706.6642765250646,93.57656824129636 742.7264752791069,113.9043062200957 798,111 C 853.2735247208931,108.0956937799043 927.758375408637,81.95934336091358 993,68 C 1058.241624591363,54.040656639086414 1114.2400230863448,52.258320336249966 1173,67 C 1231.7599769136552,81.74167966375003 1293.281532245984,113.00737529408654 1350,114 C 1406.718467754016,114.99262470591346 1458.633847929719,85.71217848740385 1509,76 C 1559.366152070281,66.28782151259615 1608.1830760351404,76.14391075629808 1657,86 C 1657,86 1657,862 1657,862 Z" stroke="none" stroke-width="0" fill="url(#linear-gradient)" class="transition-all duration-300 ease-in-out delay-150" style="transform-origin: center center;"/><defs><linearGradient id="linear-gradient" x1="0" x2="0" y1="1" y2="0"><stop offset="0%" stop-color="#70008f60"/><stop offset="100%" stop-color="#00eeff60"/></linearGradient></defs><path transform="scale(-1, 1)" d="M 0,862 V 0,129 C 40.065661705746024,113.94128842951176 80.13132341149205,98.8825768590235 144,109 C 207.86867658850795,119.1174231409765 295.5403680597778,154.41098099341778 358,159 C 420.4596319402222,163.58901900658222 457.70720434939676,137.4734991673055 503,127 C 548.2927956506032,116.5265008326945 601.6308145426349,121.69502233736026 658,118 C 714.3691854573651,114.30497766263974 773.7695374800637,101.74641148325357 834,105 C 894.2304625199363,108.25358851674643 955.29103553711,127.31933172962545 1006,139 C 1056.70896446289,150.68066827037455 1097.0663203714962,154.97626159824475 1148,150 C 1198.9336796285038,145.02373840175525 1260.4436829769047,130.77562187739565 1322,133 C 1383.5563170230953,135.22437812260435 1445.1589477208845,153.92125089217265 1501,156 C 1556.8410522791155,158.07874910782735 1606.9205261395578,143.53937455391366 1657,129 C 1657,129 1657,862 1657,862 Z" stroke="none" stroke-width="0" fill="url(#linear-gradient)" class="transition-all duration-300 ease-in-out delay-150" style="transform-origin: center center;"/><defs><linearGradient id="linear-gradient" x1="0" x2="0" y1="1" y2="0"><stop offset="0%" stop-color="#70008f70"/><stop offset="100%" stop-color="#00eeff70"/></linearGradient></defs><path transform="scale(-1, 1)" d="M 0,862 V 0,193 C 40.80769823856477,188.55235401411616 81.61539647712954,184.10470802823232 136,192 C 190.38460352287046,199.89529197176768 258.3461123300466,220.1335219011869 324,225 C 389.6538876699534,229.8664780988131 453.00015420268414,219.36120436702 500,205 C 546.9998457973159,190.63879563298 577.6532708592173,172.42166063073302 634,174 C 690.3467291407827,175.57833936926698 772.3867623604467,196.95215311004785 828,192 C 883.6132376395533,187.04784688995215 912.7996796989964,155.76972692907557 973,164 C 1033.2003203010036,172.23027307092443 1124.414518843568,219.96893917364986 1187,220 C 1249.585481156432,220.03106082635014 1283.5422449267317,172.35451637632502 1327,165 C 1370.4577550732683,157.64548362367498 1423.4165014495052,190.61299532105 1480,202 C 1536.5834985504948,213.38700467895 1596.7917492752474,203.193502339475 1657,193 C 1657,193 1657,862 1657,862 Z" stroke="none" stroke-width="0" fill="url(#linear-gradient)" class="transition-all duration-300 ease-in-out delay-150" style="transform-origin: center center;"/><defs><linearGradient id="linear-gradient" x1="0" x2="0" y1="1" y2="0"><stop offset="0%" stop-color="#70008f80"/><stop offset="100%" stop-color="#00eeff80"/></linearGradient></defs><path transform="scale(-1, 1)" d="M 0,862 V 0,290 C 44.859523557764334,268.6822940072431 89.71904711552867,247.36458801448623 139,259 C 188.28095288447133,270.63541198551377 241.9833350956497,315.2239419492982 300,317 C 358.0166649043503,318.7760580507018 420.3476125018725,277.7396441883211 479,269 C 537.6523874981275,260.2603558116789 592.6262148968603,283.8174812974173 657,291 C 721.3737851031397,298.1825187025827 795.1475279106858,288.99043062200957 853,284 C 910.8524720893142,279.00956937799043 952.7836734603964,278.2207962145444 998,282 C 1043.2163265396036,285.7792037854556 1091.7177782477288,294.12638451981286 1147,293 C 1202.2822217522712,291.87361548018714 1264.3452135486882,281.2736657062042 1330,286 C 1395.6547864513118,290.7263342937958 1464.9013675575177,310.7789526553702 1520,314 C 1575.0986324424823,317.2210473446298 1616.049316221241,303.6105236723149 1657,290 C 1657,290 1657,862 1657,862 Z" stroke="none" stroke-width="0" fill="url(#linear-gradient)" class="transition-all duration-300 ease-in-out delay-150" style="transform-origin: center center;"/><defs><linearGradient id="linear-gradient" x1="0" x2="0" y1="1" y2="0"><stop offset="0%" stop-color="#70008f90"/><stop offset="100%" stop-color="#00eeff90"/></linearGradient></defs><path transform="scale(-1, 1)" d="M 0,862 V 0,436 C 61.413450439257375,428.0281794390547 122.82690087851475,420.0563588781094 182,421 C 241.17309912148525,421.9436411218906 298.1058469251985,431.80274392661715 355,429 C 411.8941530748015,426.19725607338285 468.74971142069137,410.73266541542205 512,413 C 555.2502885793086,415.26733458457795 584.8953073920361,435.2665944116947 637,450 C 689.1046926079639,464.7334055883053 763.6690590111642,474.200956937799 821,460 C 878.3309409888358,445.799043062201 918.4284565633068,407.92957783710904 973,409 C 1027.5715434366932,410.07042216289096 1096.6171147356085,450.0807317137646 1152,452 C 1207.3828852643915,453.9192682862354 1249.103084494259,417.74749530783265 1303,411 C 1356.896915505741,404.25250469216735 1422.9705472873545,426.92928705490493 1484,436 C 1545.0294527126455,445.07071294509507 1601.0147263563226,440.5353564725475 1657,436 C 1657,436 1657,862 1657,862 Z" stroke="none" stroke-width="0" fill="url(#linear-gradient)" class="transition-all duration-300 ease-in-out delay-150" style="transform-origin: center center;"/><defs><linearGradient id="linear-gradient" x1="0" x2="0" y1="1" y2="0"><stop offset="0%" stop-color="#70008fff"/><stop offset="100%" stop-color="#00eeffff"/></linearGradient></defs><path transform="scale(-1, 1)" d="M 0,862 V 0,654 C 49.377287706962036,644.402561526871 98.75457541392407,634.8051230537419 164,628 C 229.24542458607593,621.1948769462581 310.3589860512658,617.1820693119034 361,626 C 411.6410139487342,634.8179306880966 431.8094803810128,656.4665996986439 479,656 C 526.1905196189872,655.5334003013561 600.403092424683,632.9515318935208 655,623 C 709.596907575317,613.0484681064792 744.5781499202553,615.7272727272727 800,624 C 855.4218500797447,632.2727272727273 931.2843078942963,646.1393771973883 988,643 C 1044.7156921057037,639.8606228026117 1082.2846185025596,619.7152184831743 1144,622 C 1205.7153814974404,624.2847815168257 1291.5772180954646,648.9997488699146 1356,650 C 1420.4227819045354,651.0002511300854 1463.4065091155815,628.2857860371673 1510,625 C 1556.5934908844185,621.7142139628327 1606.7967454422092,637.8571069814163 1657,654 C 1657,654 1657,862 1657,862 Z" stroke="none" stroke-width="0" fill="url(#linear-gradient)" class="transition-all duration-300 ease-in-out delay-150" style="transform-origin: center center;"/></svg>