<svg style="object-fit:cover" id="my-svg" version="1" baseProfile="full" width="100%" height="100%" viewBox="0 0 1657 862" xmlns="http://www.w3.org/2000/svg"><rect width="1657" height="862" fill="#053094"/><defs><linearGradient id="linear-gradient" x1="0" x2="0" y1="1" y2="0"><stop offset="0%" stop-color="#efdf0150"/><stop offset="100%" stop-color="#0cd4a250"/></linearGradient></defs><path transform="scale(-1, 1)" d="M 0,862 V 0,86 C 45.53764087516632,66.80501731475852 91.07528175033264,47.61003462951703 151,55 C 210.92471824966736,62.38996537048297 285.2365138738358,96.36487879669039 343,112 C 400.7634861261642,127.63512120330961 441.9786627543242,124.93045018372148 494,114 C 546.0213372456758,103.06954981627852 608.8488351088672,83.9133204684237 669,73 C 729.1511648911328,62.0866795315763 786.6259968102073,59.416267942583744 837,64 C 887.3740031897927,68.58373205741626 930.6471776503035,80.42160776124138 984,92 C 1037.3528223496965,103.57839223875862 1100.7852925885786,114.89730101245077 1165,110 C 1229.2147074114214,105.10269898754923 1294.2116519953827,83.98918818895555 1351,72 C 1407.7883480046173,60.01081181104444 1456.3680994298907,57.14594623172698 1506,61 C 1555.6319005701093,64.85405376827302 1606.3159502850547,75.42702688413651 1657,86 C 1657,86 1657,862 1657,862 Z" stroke="none" stroke-width="0" fill="url(#linear-gradient)" class="transition-all duration-300 ease-in-out delay-150" style="transform-origin: center center;"/><defs><linearGradient id="linear-gradient" x1="0" x2="0" y1="1" y2="0"><stop offset="0%" stop-color="#efdf0160"/><stop offset="100%" stop-color="#0cd4a260"/></linearGradient></defs><path transform="scale(-1, 1)" d="M 0,862 V 0,129 C 61.7274026981064,126.52421422718021 123.4548053962128,124.04842845436042 183,121 C 242.5451946037872,117.95157154563958 299.9081811132552,114.33050040973856 357,117 C 414.0918188867448,119.66949959026144 470.91247015076624,128.62956990668533 523,127 C 575.0875298492338,125.37043009331465 622.4419382836801,113.15121996352005 670,113 C 717.5580617163199,112.84878003647995 765.3197767145134,124.76555023923444 812,128 C 858.6802232854866,131.23444976076556 904.2789548582657,125.78657907954215 969,127 C 1033.7210451417343,128.21342092045785 1117.5644038524238,136.08813344259693 1177,142 C 1236.4355961475762,147.91186655740307 1271.46342973204,151.86088715007006 1318,152 C 1364.53657026796,152.13911284992994 1422.581877219417,148.46831795712282 1481,144 C 1539.418122780583,139.53168204287718 1598.2090613902915,134.26584102143858 1657,129 C 1657,129 1657,862 1657,862 Z" stroke="none" stroke-width="0" fill="url(#linear-gradient)" class="transition-all duration-300 ease-in-out delay-150" style="transform-origin: center center;"/><defs><linearGradient id="linear-gradient" x1="0" x2="0" y1="1" y2="0"><stop offset="0%" stop-color="#efdf0170"/><stop offset="100%" stop-color="#0cd4a270"/></linearGradient></defs><path transform="scale(-1, 1)" d="M 0,862 V 0,193 C 73.26819151092195,184.4476327685109 146.5363830218439,175.89526553702186 195,186 C 243.4636169781561,196.10473446297814 267.1226594235463,224.8665706204235 318,219 C 368.8773405764537,213.1334293795765 446.972979283971,172.6384519812842 517,171 C 587.027020716029,169.3615480187158 648.9854234405703,206.57962145443975 689,216 C 729.0145765594297,225.42037854556025 747.085326953748,207.0430622009569 798,190 C 848.914673046252,172.9569377990431 932.6732687444378,157.24812974173253 989,168 C 1045.3267312555622,178.75187025826747 1074.221598068501,215.96441883211295 1135,223 C 1195.778401931499,230.03558116788705 1288.4403389815575,206.89419492981574 1348,203 C 1407.5596610184425,199.10580507018426 1434.0170460052693,214.45880144862406 1480,216 C 1525.9829539947307,217.54119855137594 1591.4914769973652,205.27059927568797 1657,193 C 1657,193 1657,862 1657,862 Z" stroke="none" stroke-width="0" fill="url(#linear-gradient)" class="transition-all duration-300 ease-in-out delay-150" style="transform-origin: center center;"/><defs><linearGradient id="linear-gradient" x1="0" x2="0" y1="1" y2="0"><stop offset="0%" stop-color="#efdf0180"/><stop offset="100%" stop-color="#0cd4a280"/></linearGradient></defs><path transform="scale(-1, 1)" d="M 0,862 V 0,290 C 43.775870804585566,278.4534219778477 87.55174160917113,266.90684395569536 152,270 C 216.44825839082887,273.09315604430464 301.5689043679011,290.8260461550662 358,300 C 414.4310956320989,309.1739538449338 442.17264091922425,309.7889714240398 491,300 C 539.8273590807758,290.2110285759602 609.740531955202,270.0180681487747 673,274 C 736.259468044798,277.9819318512253 792.8652312599681,306.13875598086133 851,318 C 909.1347687400319,329.86124401913867 968.7985430049257,325.42690792778023 1021,317 C 1073.2014569950743,308.57309207221977 1117.9405967203293,296.1536123080177 1158,286 C 1198.0594032796707,275.8463876919823 1233.4390701137572,267.9586428401491 1296,278 C 1358.5609298862428,288.0413571598509 1448.3031228246407,316.011816331386 1513,321 C 1577.6968771753593,325.988183668614 1617.3484385876795,307.994091834307 1657,290 C 1657,290 1657,862 1657,862 Z" stroke="none" stroke-width="0" fill="url(#linear-gradient)" class="transition-all duration-300 ease-in-out delay-150" style="transform-origin: center center;"/><defs><linearGradient id="linear-gradient" x1="0" x2="0" y1="1" y2="0"><stop offset="0%" stop-color="#efdf0190"/><stop offset="100%" stop-color="#0cd4a290"/></linearGradient></defs><path transform="scale(-1, 1)" d="M 0,862 V 0,436 C 62.3792967476451,426.2223294298026 124.7585934952902,416.4446588596051 181,415 C 237.2414065047098,413.5553411403949 287.3449227664843,420.4436939913822 338,430 C 388.6550772335157,439.5563060086178 439.86171543877276,451.78056517486584 500,448 C 560.1382845612272,444.21943482513416 629.2082154784249,424.4340453091544 684,415 C 738.7917845215751,405.5659546908456 779.305422647528,406.4832535885168 822,410 C 864.694577352472,413.5167464114832 909.5700939314634,419.63294033677863 968,430 C 1026.4299060685366,440.36705966322137 1098.4142016266183,454.9849850643687 1160,457 C 1221.5857983733817,459.0150149356313 1272.7730995620645,448.4271194057469 1334,439 C 1395.2269004379355,429.5728805942531 1466.4934001251243,421.30653731264374 1522,421 C 1577.5065998748757,420.69346268735626 1617.253299937438,428.34673134367813 1657,436 C 1657,436 1657,862 1657,862 Z" stroke="none" stroke-width="0" fill="url(#linear-gradient)" class="transition-all duration-300 ease-in-out delay-150" style="transform-origin: center center;"/><defs><linearGradient id="linear-gradient" x1="0" x2="0" y1="1" y2="0"><stop offset="0%" stop-color="#efdf01ff"/><stop offset="100%" stop-color="#0cd4a2ff"/></linearGradient></defs><path transform="scale(-1, 1)" d="M 0,862 V 0,654 C 51.54134173958252,669.5109704195195 103.08268347916504,685.0219408390388 156,686 C 208.91731652083496,686.9780591609612 263.21060782292244,673.423207063364 321,673 C 378.78939217707756,672.576792936636 440.07488522914514,685.2852309075049 496,678 C 551.9251147708549,670.7147690924951 602.4898512604967,643.4358693066165 654,638 C 705.5101487395033,632.5641306933835 757.9657097288676,648.9712918660288 813,660 C 868.0342902711324,671.0287081339712 925.6473098240326,676.6789632292684 979,675 C 1032.3526901759674,673.3210367707316 1081.4450509750018,664.3128552168971 1142,664 C 1202.5549490249982,663.6871447831029 1274.5724862759612,672.0696159031431 1337,666 C 1399.4275137240388,659.9303840968569 1452.265003921154,639.4086811705305 1504,635 C 1555.734996078846,630.5913188294695 1606.367498039423,642.2956594147347 1657,654 C 1657,654 1657,862 1657,862 Z" stroke="none" stroke-width="0" fill="url(#linear-gradient)" class="transition-all duration-300 ease-in-out delay-150" style="transform-origin: center center;"/></svg>