<?xml version="1.0" encoding="UTF-8"?>
<svg class='flair-image' xmlns="http://www.w3.org/2000/svg" xmlnsXlink="http://www.w3.org/1999/xlink" width="96px" height="96px" viewBox="0 0 512 512" version="1.1">
    
    <title>Coffee bag</title>
    <desc>Created with Sketch.</desc>
    <defs/>
    <g id="SVG" stroke="none" stroke-width="1" fill="none" fill-rule="evenodd">
        <g id="Coffee-bag">
            <g id="6" transform="translate(96.000000, -1.000000)">
                <polygon id="Fill-1" fill="#F8E6C4" points="263.253042 42.8463396 263.253042 462.728304 224.878202 501.981509 10.4740792 501.981509 10.4740792 218.205469 75.1119378 42.8463396"/>
                <polyline id="Fill-2" fill="#F8E6C4" points="308.964797 501.564202 308.964797 222.244978 263.255116 42.8442635 217.967136 220.514847 217.967136 501.986354 308.964797 501.986354"/>
                <polygon id="Fill-3" fill="#F8E6C4" points="263.253042 462.73038 224.463413 501.561434 263.253042 501.561434 308.962723 501.561434"/>
                <polygon id="Fill-4" fill="#FEFEFE" points="75.1160857 42.8477237 260.471194 42.8477237 260.471194 11.16557 75.1160857 11.16557"/>
                <polygon id="Fill-5" fill="#B4814A" points="10.471314 373.81481 216.240925 373.81481 216.240925 218.199932 10.471314 218.199932"/>
                <g id="Group-19" transform="translate(0.000000, 0.244985)">
                    <path d="M135.839724,276.050661 C150.288187,294.556139 150.384971,318.639559 136.054032,329.850806 C121.730006,341.068973 98.4050716,335.151926 83.9566091,316.639528 C69.5081466,298.134049 69.4113626,274.05063 83.7353886,262.839383 C98.0594146,251.628136 121.384349,257.545183 135.839724,276.050661" id="Fill-6" fill="#513A2B"/>
                    <path d="M88.000796,260.127922 C88.000796,260.127922 90.3512636,291.457129 109.89471,296.343018 C125.732714,300.308478 130.63413,331.741493 130.63413,331.741493" id="Fill-8" fill="#513A2B"/>
                    <path d="M263.253042,472.866179 C257.528962,472.866179 252.883332,468.215588 252.883332,462.485395 L252.883332,42.6034309 C252.883332,36.8663174 257.528962,32.2226466 263.253042,32.2226466 C268.977122,32.2226466 273.622752,36.8663174 273.622752,42.6034309 L273.622752,462.485395 C273.622752,468.215588 268.977122,472.866179 263.253042,472.866179" id="Fill-10" fill="#2E2E30"/>
                    <polygon id="Fill-12" fill="#010202" opacity="0.15" points="260.471886 42.6013547 260.471886 10.919201 219.649794 10.919201 219.649794 42.6013547 174.707471 217.960484 174.707471 501.736524 217.969901 501.736524 308.967562 501.736524 308.967562 501.321293 308.967562 221.995149"/>
                    <path d="M135.704227,311.139788 C131.52869,300.599832 124.366677,289.264015 112.406945,286.274349 C105.521458,284.551139 101.698491,275.243036 99.8181174,267.62354 C100.184514,267.602779 100.537084,267.540494 100.92422,267.540494 C110.236219,267.540494 120.495319,273.249925 127.671158,282.4473 C134.812432,291.596231 137.49473,302.56526 135.704227,311.139788 M92.1237927,310.247041 C85.6945725,302.004698 82.8601851,292.253681 83.6621093,284.135908 C87.9275167,293.741593 95.1379217,303.3542 107.381093,306.413071 C111.383801,307.423467 115.815123,315.942631 118.497422,325.126165 C109.275293,324.973913 99.2097611,319.319846 92.1237927,310.247041 M100.92422,246.778925 C95.2347056,246.778925 89.8977616,248.024619 85.0170848,250.197664 C84.2912051,250.41912 83.6137174,250.723623 82.9707954,251.07657 C81.0005505,252.107728 79.1063501,253.284217 77.3504126,254.661401 C58.5397587,269.381353 57.8415316,300.04619 75.7880429,323.036167 C86.9665902,337.354729 103.067293,345.908495 118.863818,345.908495 C127.705724,345.908495 135.856316,343.188729 142.444538,338.03294 C161.248279,323.312988 161.953419,292.64123 144.006908,269.658174 C132.821448,255.339612 116.713831,246.778925 100.92422,246.778925" id="Fill-14" fill="#2E2E30"/>
                    <g id="Group-18" fill="#2E2E30">
                        <path d="M298.595087,478.894647 L273.624826,457.683244 L273.624826,125.29053 L298.595087,223.298975 L298.595087,478.894647 Z M249.947321,490.936356 L263.904951,476.659318 L280.717707,490.936356 L249.947321,490.936356 Z M228.336846,221.568844 L252.885406,125.269769 L252.885406,458.188442 L228.336846,482.763219 L228.336846,221.568844 Z M210.500945,207.575547 L25.3532304,207.575547 L82.338243,52.9849072 L249.905842,52.9849072 L210.500945,207.575547 Z M20.83895,491.358508 L207.597426,491.358508 L207.597426,383.951993 L20.83895,383.951993 L20.83895,491.358508 Z M20.83895,363.190425 L205.869141,363.190425 L205.869141,228.337116 L20.83895,228.337116 L20.83895,363.190425 Z M85.7602473,32.2233386 L252.60888,32.2233386 L252.60888,21.3027535 L85.7602473,21.3027535 L85.7602473,32.2233386 Z M319.009589,219.430403 L273.624826,41.3099852 L273.624826,10.9219692 C273.624826,5.18485574 268.916977,0.541184889 263.10994,0.541184889 L75.2522746,0.541184889 C69.4521502,0.541184889 64.7443019,5.18485574 64.7443019,10.9219692 L64.7443019,40.7425023 L0.74245213,214.36458 C0.70788643,214.454547 0.72171271,214.544514 0.69406015,214.634481 C0.334576872,215.6864 0.0995301138,216.786763 0.0995301138,217.956332 L0.0995301138,373.571209 L0.0995301138,501.739293 C0.0995301138,507.469486 4.74516017,512.120077 10.46924,512.120077 L217.967136,512.120077 L224.880276,512.120077 L308.964797,512.120077 C314.688877,512.120077 319.334507,507.469486 319.334507,501.739293 L319.334507,501.531677 L319.334507,501.317141 L319.334507,221.997917 C319.334507,221.132852 319.223897,220.267786 319.009589,219.430403 L319.009589,219.430403 Z" id="Fill-16"/>
                    </g>
                </g>
            </g>
        </g>
    </g>

</svg>
