<?xml version="1.0" encoding="UTF-8"?>
<svg class='flair-image' xmlns="http://www.w3.org/2000/svg" xmlnsXlink="http://www.w3.org/1999/xlink" width="96px" height="96px" viewBox="0 0 512 512" version="1.1">
    
    <title>Coffee grinder</title>
    <desc>Created with Sketch.</desc>
    <defs/>
    <g id="SVG" stroke="none" stroke-width="1" fill="none" fill-rule="evenodd">
        <g id="Coffee-grinder">
            <g id="9" transform="translate(28.000000, 0.000000)">
                <path d="M424.779285,499.794651 L11.9786469,499.794651 L11.9786469,483.001051 C11.9786469,472.57088 20.4383962,464.115566 30.8740385,464.115566 L405.883893,464.115566 C416.319535,464.115566 424.779285,472.57088 424.779285,483.001051 L424.779285,499.794651 L424.779285,499.794651 Z" id="Fill-1" fill="#B4814A"/>
                <path d="M405.88682,464.118491 L354.659965,464.118491 C365.095607,464.118491 373.555357,472.573806 373.555357,483.003977 L373.555357,499.797577 L424.782212,499.797577 L424.782212,483.003977 C424.782212,472.573806 416.322463,464.118491 405.88682,464.118491" id="Fill-10" fill="#010202" opacity="0.15"/>
                <path d="M22.9543666,488.82176 L413.800638,488.82176 L413.800638,482.999589 C413.800638,478.640274 410.251349,475.092846 405.88243,475.092846 L30.8725749,475.092846 C26.5036559,475.092846 22.9543666,478.640274 22.9543666,482.999589 L22.9543666,488.82176 Z M424.777821,510.764617 L11.9771833,510.764617 C5.91777813,510.764617 1,505.849417 1,499.793189 L1,482.999589 C1,466.542446 14.3994818,453.149989 30.8725749,453.149989 L405.88243,453.149989 C422.355523,453.149989 435.755004,466.542446 435.755004,482.999589 L435.755004,499.793189 C435.755004,505.849417 430.837226,510.764617 424.777821,510.764617 L424.777821,510.764617 Z" id="Fill-3" fill="#2E2E30"/>
                <path d="M424.779285,299.240594 L11.9786469,299.240594 L11.9786469,289.951451 C11.9786469,275.37408 23.7974143,263.561509 38.3751138,263.561509 L398.382818,263.561509 C412.960517,263.561509 424.779285,275.37408 424.779285,289.951451 L424.779285,299.240594 Z" id="Fill-5" fill="#B4814A"/>
                <path d="M398.381354,263.564434 L347.154499,263.564434 C361.732198,263.564434 373.550966,275.377006 373.550966,289.947063 L373.550966,299.24352 L424.777821,299.24352 L424.777821,289.947063 C424.777821,275.377006 412.959054,263.564434 398.381354,263.564434" id="Fill-12" fill="#010202" opacity="0.15"/>
                <g id="Group-9" transform="translate(0.000000, 252.450331)" fill="#2E2E30">
                    <path d="M23.0473068,35.82176 L413.710625,35.82176 C412.876359,28.1051886 406.319321,22.0855314 398.379159,22.0855314 L38.3787728,22.0855314 C30.4386102,22.0855314 23.8815727,28.1051886 23.0473068,35.82176 M424.782944,57.7646171 L11.9749879,57.7646171 C5.91558269,57.7646171 0.997804563,52.8494171 0.997804563,46.7931886 L0.997804563,37.4967314 C0.997804563,16.8997029 17.7636226,0.142674286 38.3787728,0.142674286 L398.379159,0.142674286 C418.986991,0.142674286 435.760127,16.8997029 435.760127,37.4967314 L435.760127,46.7931886 C435.760127,52.8494171 430.842349,57.7646171 424.782944,57.7646171" id="Fill-7"/>
                </g>
                <polygon id="Fill-14" fill="#B4814A" points="30.8725749 466.49856 404.169989 466.49856 404.169989 299.213531 30.8725749 299.213531"/>
                <polygon id="Fill-17" fill="#010202" opacity="0.15" points="352.943133 466.49856 398.886305 466.49856 398.886305 299.213531 352.943133 299.213531"/>
                <path d="M41.8497582,453.343563 L393.192806,453.343563 L393.192806,309.89854 L41.8497582,309.89854 L41.8497582,453.343563 Z M404.169989,475 L30.8725749,475 C24.8131697,475 19.8953916,470.148958 19.8953916,464.171781 L19.8953916,299.070322 C19.8953916,293.093145 24.8131697,288.242103 30.8725749,288.242103 L404.169989,288.242103 C410.229394,288.242103 415.147172,293.093145 415.147172,299.070322 L415.147172,464.171781 C415.147172,470.148958 410.229394,475 404.169989,475 L404.169989,475 Z" id="Fill-16" fill="#2E2E30"/>
                <polygon id="Fill-18" fill="#F8E6C4" points="76.091252 432.611474 360.663752 432.611474 360.663752 333.100617 76.091252 333.100617"/>
                <polygon id="Fill-20" fill="#010202" opacity="0.15" points="316.755019 432.611474 360.663752 432.611474 360.663752 333.100617 316.755019 333.100617"/>
                <path d="M87.0757535,421.640046 L349.693887,421.640046 L349.693887,344.072046 L87.0757535,344.072046 L87.0757535,421.640046 Z M360.663752,443.582903 L76.0985702,443.582903 C70.039165,443.582903 65.1213868,438.675017 65.1213868,432.611474 L65.1213868,333.100617 C65.1213868,327.044389 70.039165,322.129189 76.0985702,322.129189 L360.663752,322.129189 C366.730476,322.129189 371.640936,327.044389 371.640936,333.100617 L371.640936,432.611474 C371.640936,438.675017 366.730476,443.582903 360.663752,443.582903 L360.663752,443.582903 Z" id="Fill-19" fill="#2E2E30"/>
                <path d="M238.740177,382.85824 C238.740177,394.100297 229.621797,403.206583 218.381161,403.206583 C207.133207,403.206583 198.022145,394.100297 198.022145,382.85824 C198.022145,371.616183 207.133207,362.509897 218.381161,362.509897 C229.621797,362.509897 238.740177,371.616183 238.740177,382.85824" id="Fill-21" fill="#FBAE3A"/>
                <path d="M218.378234,373.479131 C213.204322,373.479131 208.996401,377.684846 208.996401,382.856046 C208.996401,388.027246 213.204322,392.23296 218.378234,392.23296 C223.552146,392.23296 227.760067,388.027246 227.760067,382.856046 C227.760067,377.684846 223.552146,373.479131 218.378234,373.479131 M218.378234,414.175817 C201.100147,414.175817 187.042035,400.132389 187.042035,382.856046 C187.042035,365.587017 201.100147,351.536274 218.378234,351.536274 C235.656321,351.536274 249.714433,365.587017 249.714433,382.856046 C249.714433,400.132389 235.656321,414.175817 218.378234,414.175817" id="Fill-22" fill="#2E2E30"/>
                <path d="M217.52055,262.115474 C265.673794,262.115474 304.708658,223.101074 304.708658,174.973074 L130.332442,174.973074 C130.332442,223.101074 169.367306,262.115474 217.52055,262.115474" id="Fill-23" fill="#FBAE3A"/>
                <path d="M253.48473,174.970149 C253.48473,214.189349 227.556623,247.345006 191.91005,258.279863 C200.011211,260.76672 208.602686,262.112549 217.523477,262.112549 C265.676722,262.112549 304.711585,223.098149 304.711585,174.970149 L253.48473,174.970149 Z" id="Fill-25" fill="#010202" opacity="0.15"/>
                <path d="M142.095592,185.94304 C147.430503,222.763154 179.220426,251.142583 217.523477,251.142583 C255.819211,251.142583 287.609134,222.763154 292.944045,185.94304 L142.095592,185.94304 Z M217.523477,273.08544 C163.391327,273.08544 119.358186,229.068069 119.358186,174.971611 C119.358186,168.915383 124.268646,164.000183 130.335369,164.000183 L304.711585,164.000183 C310.770991,164.000183 315.688769,168.915383 315.688769,174.971611 C315.688769,229.068069 271.648309,273.08544 217.523477,273.08544 L217.523477,273.08544 Z" id="Fill-24" fill="#2E2E30"/>
                <path d="M310.128459,174.970149 L124.914104,174.970149 C114.646779,174.970149 106.252893,166.580663 106.252893,156.31872 L106.252893,156.31872 C106.252893,146.064091 114.646779,137.674606 124.914104,137.674606 L310.128459,137.674606 C320.388467,137.674606 328.789671,146.064091 328.789671,156.31872 L328.789671,156.31872 C328.789671,166.580663 320.388467,174.970149 310.128459,174.970149" id="Fill-26" fill="#FBAE3A"/>
                <path d="M310.128459,137.672411 L258.901604,137.672411 C269.161611,137.672411 277.562816,146.061897 277.562816,156.32384 C277.562816,166.578469 269.161611,174.967954 258.901604,174.967954 L310.128459,174.967954 C320.388467,174.967954 328.789671,166.578469 328.789671,156.32384 C328.789671,146.061897 320.388467,137.672411 310.128459,137.672411" id="Fill-28" fill="#010202" opacity="0.15"/>
                <path d="M124.914836,148.643109 C120.750825,148.643109 117.230808,152.153966 117.230808,156.323109 C117.230808,160.484937 120.750825,164.003109 124.914836,164.003109 L310.129191,164.003109 C314.293203,164.003109 317.805901,160.484937 317.805901,156.323109 C317.805901,152.153966 314.293203,148.643109 310.129191,148.643109 L124.914836,148.643109 Z M310.129191,185.945966 L124.914836,185.945966 C108.573469,185.945966 95.2764412,172.655909 95.2764412,156.323109 C95.2764412,139.982994 108.573469,126.700251 124.914836,126.700251 L310.129191,126.700251 C326.470558,126.700251 339.760268,139.982994 339.760268,156.323109 C339.760268,172.655909 326.470558,185.945966 310.129191,185.945966 L310.129191,185.945966 Z" id="Fill-27" fill="#2E2E30"/>
                <path d="M217.52055,143.22176 C211.461145,143.22176 206.543367,138.30656 206.543367,132.250331 L206.543367,119.091931 C206.543367,99.4603886 222.526146,83.4859886 242.160668,83.4859886 L399.031935,83.4859886 C407.177005,83.4859886 413.799906,76.86656 413.799906,68.7184457 C413.799906,62.6622171 418.717684,57.7470171 424.777089,57.7470171 C430.836495,57.7470171 435.754273,62.6622171 435.754273,68.7184457 C435.754273,88.9643886 419.28118,105.428846 399.031935,105.428846 L242.160668,105.428846 C234.63032,105.428846 228.497733,111.558217 228.497733,119.091931 L228.497733,132.250331 C228.497733,138.30656 223.579955,143.22176 217.52055,143.22176" id="Fill-29" fill="#2E2E30"/>
                <path d="M421.104856,86.8542171 L421.104856,86.8542171 C410.537487,86.8542171 401.894785,78.2160457 401.894785,67.6542171 L401.894785,30.1685029 C401.894785,19.6066743 410.537487,10.9685029 421.104856,10.9685029 L421.104856,10.9685029 C431.672224,10.9685029 440.314926,19.6066743 440.314926,30.1685029 L440.314926,67.6542171 C440.314926,78.2160457 431.672224,86.8542171 421.104856,86.8542171" id="Fill-30" fill="#513A2B"/>
                <path d="M421.106319,21.9428571 C416.569083,21.9428571 412.873432,25.6365714 412.873432,30.1714286 L412.873432,67.6571429 C412.873432,72.192 416.569083,75.8857143 421.106319,75.8857143 C425.563056,75.8857143 429.339207,72.1115429 429.339207,67.6571429 L429.339207,30.1714286 C429.339207,25.6365714 425.643555,21.9428571 421.106319,21.9428571 M421.106319,97.8285714 C404.464909,97.8285714 390.919065,84.2898286 390.919065,67.6571429 L390.919065,30.1714286 C390.919065,13.5387429 404.464909,0 421.106319,0 C437.747729,0 451.293573,13.5387429 451.293573,30.1714286 L451.293573,67.6571429 C451.293573,84.2898286 437.747729,97.8285714 421.106319,97.8285714" id="Fill-31" fill="#2E2E30"/>
            </g>
        </g>
    </g>

</svg>
